<svg width="66" height="56" viewBox="0 0 66 56" fill="none" xmlns="http://www.w3.org/2000/svg">
<path d="M1.032 37.624C1.032 35.992 1.4 34.528 2.136 33.232C2.872 31.92 3.872 30.896 5.136 30.16C6.416 29.424 7.832 29.056 9.384 29.056C11.208 29.056 12.8 29.496 14.16 30.376C15.52 31.256 16.512 32.504 17.136 34.12H14.52C14.056 33.112 13.384 32.336 12.504 31.792C11.64 31.248 10.6 30.976 9.384 30.976C8.216 30.976 7.168 31.248 6.24 31.792C5.312 32.336 4.584 33.112 4.056 34.12C3.528 35.112 3.264 36.28 3.264 37.624C3.264 38.952 3.528 40.12 4.056 41.128C4.584 42.12 5.312 42.888 6.24 43.432C7.168 43.976 8.216 44.248 9.384 44.248C10.6 44.248 11.64 43.984 12.504 43.456C13.384 42.912 14.056 42.136 14.52 41.128H17.136C16.512 42.728 15.52 43.968 14.16 44.848C12.8 45.712 11.208 46.144 9.384 46.144C7.832 46.144 6.416 45.784 5.136 45.064C3.872 44.328 2.872 43.312 2.136 42.016C1.4 40.72 1.032 39.256 1.032 37.624ZM19.5711 39.376C19.5711 38.032 19.8431 36.856 20.3871 35.848C20.9311 34.824 21.6751 34.032 22.6191 33.472C23.5791 32.912 24.6431 32.632 25.8111 32.632C26.9631 32.632 27.9631 32.88 28.8111 33.376C29.6591 33.872 30.2911 34.496 30.7071 35.248V32.848H32.9151V46H30.7071V43.552C30.2751 44.32 29.6271 44.96 28.7631 45.472C27.9151 45.968 26.9231 46.216 25.7871 46.216C24.6191 46.216 23.5631 45.928 22.6191 45.352C21.6751 44.776 20.9311 43.968 20.3871 42.928C19.8431 41.888 19.5711 40.704 19.5711 39.376ZM30.7071 39.4C30.7071 38.408 30.5071 37.544 30.1071 36.808C29.7071 36.072 29.1631 35.512 28.4751 35.128C27.8031 34.728 27.0591 34.528 26.2431 34.528C25.4271 34.528 24.6831 34.72 24.0111 35.104C23.3391 35.488 22.8031 36.048 22.4031 36.784C22.0031 37.52 21.8031 38.384 21.8031 39.376C21.8031 40.384 22.0031 41.264 22.4031 42.016C22.8031 42.752 23.3391 43.32 24.0111 43.72C24.6831 44.104 25.4271 44.296 26.2431 44.296C27.0591 44.296 27.8031 44.104 28.4751 43.72C29.1631 43.32 29.7071 42.752 30.1071 42.016C30.5071 41.264 30.7071 40.392 30.7071 39.4ZM47.4058 41.416C47.4058 42.184 47.2138 42.92 46.8298 43.624C46.4458 44.312 45.8778 44.888 45.1258 45.352C44.3898 45.816 43.5018 46.08 42.4618 46.144V48.088H41.1658V46.144C39.7098 46.016 38.5258 45.552 37.6138 44.752C36.7018 43.936 36.2378 42.904 36.2218 41.656H38.5498C38.6138 42.328 38.8618 42.912 39.2938 43.408C39.7418 43.904 40.3658 44.216 41.1658 44.344V38.344C40.0938 38.072 39.2298 37.792 38.5738 37.504C37.9178 37.216 37.3578 36.768 36.8938 36.16C36.4298 35.552 36.1978 34.736 36.1978 33.712C36.1978 32.416 36.6458 31.344 37.5418 30.496C38.4538 29.648 39.6618 29.176 41.1658 29.08V27.088H42.4618V29.08C43.8218 29.192 44.9178 29.632 45.7498 30.4C46.5818 31.152 47.0618 32.136 47.1898 33.352H44.8618C44.7818 32.792 44.5338 32.288 44.1178 31.84C43.7018 31.376 43.1498 31.072 42.4618 30.928V36.784C43.5178 37.056 44.3738 37.336 45.0298 37.624C45.7018 37.896 46.2618 38.336 46.7098 38.944C47.1738 39.552 47.4058 40.376 47.4058 41.416ZM38.4298 33.592C38.4298 34.376 38.6618 34.976 39.1258 35.392C39.5898 35.808 40.2698 36.152 41.1658 36.424V30.88C40.3338 30.96 39.6698 31.232 39.1738 31.696C38.6778 32.144 38.4298 32.776 38.4298 33.592ZM42.4618 44.368C43.3258 44.272 43.9978 43.96 44.4778 43.432C44.9738 42.904 45.2218 42.272 45.2218 41.536C45.2218 40.752 44.9818 40.152 44.5018 39.736C44.0218 39.304 43.3418 38.96 42.4618 38.704V44.368ZM58.0635 32.608C59.0555 32.608 59.9515 32.824 60.7515 33.256C61.5515 33.672 62.1755 34.304 62.6235 35.152C63.0875 36 63.3195 37.032 63.3195 38.248V46H61.1595V38.56C61.1595 37.248 60.8315 36.248 60.1755 35.56C59.5195 34.856 58.6235 34.504 57.4875 34.504C56.3355 34.504 55.4155 34.864 54.7275 35.584C54.0555 36.304 53.7195 37.352 53.7195 38.728V46H51.5355V28.24H53.7195V34.72C54.1515 34.048 54.7435 33.528 55.4955 33.16C56.2635 32.792 57.1195 32.608 58.0635 32.608Z" fill="#828282"/>
<path d="M18.3115 4.8513C11.6639 0.272013 3.22406 -0.0590735 0 0.00675239C0.983589 2.96845 4.04031 10.5644 10.6877 15.1457C17.3514 19.7365 25.7808 20.0575 29 19.9934C28.0168 17.0328 24.9599 9.43372 18.3115 4.8513Z" fill="#828282"/>
</svg>
