<svg width="581" height="377" viewBox="0 0 581 377" fill="none" xmlns="http://www.w3.org/2000/svg">
<path d="M18.4137 289.346C21.2931 259.935 38.6958 230.577 66.3856 220.308C56.1537 250.77 57.0185 283.871 68.827 313.756C73.4229 325.265 79.732 337.586 75.999 349.404C73.6763 356.757 67.6751 362.493 60.8954 366.158C54.1152 369.824 46.5331 371.685 39.0456 373.509L37.5956 374.775C24.9383 348.075 15.5344 318.757 18.4137 289.346Z" fill="#F0F0F0"/>
<path d="M66.6773 220.855C51.0432 239.322 41.2032 262.906 39.4827 287.083C39.1108 292.311 39.1881 297.646 40.4609 302.755C41.7398 307.726 44.3255 312.263 47.9495 315.896C51.2604 319.351 55.047 322.501 57.4611 326.702C60.0056 331.129 60.2318 336.229 58.6942 341.042C56.8129 346.931 52.9292 351.793 48.9662 356.415C44.566 361.547 39.9143 366.808 38.1616 373.505C37.9492 374.316 36.7034 373.939 36.9155 373.129C39.965 361.477 51.0119 354.615 56.0904 344.06C58.4601 339.134 59.3609 333.465 56.8869 328.395C54.7236 323.962 50.8216 320.71 47.439 317.241C43.8871 313.598 41.1317 309.571 39.6384 304.665C38.1108 299.645 37.8249 294.302 38.0617 289.089C38.6868 277.27 41.1649 265.623 45.4054 254.574C50.1751 241.938 57.0697 230.211 65.791 219.901C66.3311 219.263 67.2139 220.222 66.6774 220.855L66.6773 220.855Z" fill="white"/>
<path d="M39.6276 279.195C35.5818 278.323 31.9774 276.04 29.4581 272.755C26.9388 269.469 25.6687 265.394 25.8746 261.258C25.8845 261.089 25.9595 260.931 26.0837 260.816C26.2079 260.702 26.3716 260.64 26.5403 260.644C26.7091 260.648 26.8697 260.718 26.9883 260.838C27.1069 260.958 27.1742 261.12 27.1761 261.289C26.9772 265.14 28.1607 268.936 30.5129 271.991C32.8651 275.046 36.2311 277.159 40.0033 277.948C40.8229 278.121 40.4425 279.367 39.6276 279.195Z" fill="white"/>
<path d="M46.0401 314.365C53.1884 309.837 58.3685 302.779 60.5476 294.599C60.7628 293.788 62.0086 294.165 61.7937 294.975C59.5102 303.483 54.1046 310.817 46.6556 315.513C45.9453 315.96 45.3337 314.81 46.0401 314.365Z" fill="white"/>
<path d="M51.4142 243.14C52.9094 243.803 54.5459 244.085 56.1768 243.96C57.8077 243.834 59.3819 243.305 60.758 242.42C61.4623 241.964 62.0732 243.115 61.3735 243.568C59.8485 244.538 58.1093 245.12 56.3077 245.263C54.5061 245.406 52.697 245.105 51.0385 244.387C50.8765 244.332 50.7413 244.218 50.6605 244.067C50.5797 243.916 50.5592 243.74 50.6033 243.575C50.6539 243.41 50.7674 243.272 50.9193 243.191C51.0711 243.109 51.249 243.091 51.4142 243.14H51.4142Z" fill="white"/>
<path d="M152.91 270.448C152.478 270.745 152.047 271.042 151.615 271.35C145.832 275.375 140.385 279.864 135.328 284.772C134.931 285.146 134.535 285.53 134.149 285.914C122.093 297.868 112.359 311.959 105.443 327.469C102.696 333.644 100.423 340.018 98.6434 346.538C96.1857 355.542 94.2367 365.5 89.1013 372.947C88.5742 373.73 87.9992 374.479 87.3796 375.191L39.2505 376.447C39.1397 376.395 39.0286 376.353 38.9173 376.301L36.9979 376.439C37.0663 376.097 37.1445 375.743 37.2128 375.4C37.2516 375.201 37.3012 375.002 37.34 374.803C37.3693 374.67 37.3991 374.538 37.4179 374.416C37.4275 374.372 37.4376 374.328 37.4475 374.294C37.4663 374.173 37.4967 374.062 37.5158 373.952C37.9476 371.972 38.3941 369.992 38.8553 368.012C38.855 368.001 38.855 368.001 38.8654 367.99C42.4177 352.909 47.2592 337.993 54.2092 324.287C54.4184 323.874 54.6269 323.451 54.8581 323.038C58.0251 316.877 61.69 310.986 65.8161 305.422C68.0853 302.383 70.5067 299.461 73.0711 296.667C79.711 289.461 87.4424 283.344 95.9817 278.542C113.006 268.971 132.9 264.955 151.493 270.045C151.969 270.175 152.434 270.306 152.91 270.448Z" fill="#F0F0F0"/>
<path d="M152.818 271.062C129.225 276.387 107.179 289.288 91.2587 307.556C87.8168 311.506 84.6688 315.812 82.611 320.659C80.6415 325.398 79.9761 330.579 80.6841 335.663C81.2491 340.416 82.377 345.213 81.7775 350.021C81.1455 355.089 78.2579 359.298 74.1343 362.214C69.089 365.783 63.0632 367.325 57.1181 368.628C50.5172 370.074 43.638 371.472 38.2092 375.763C37.5515 376.283 36.7837 375.231 37.4405 374.712C46.8856 367.246 59.8341 368.423 70.2397 363.055C75.0951 360.55 79.2255 356.566 80.3002 351.027C81.24 346.184 80.081 341.237 79.4675 336.429C78.8232 331.38 79.0456 326.505 80.8054 321.688C82.6055 316.76 85.5919 312.321 88.9177 308.301C96.5275 299.241 105.513 291.435 115.546 285.168C126.957 277.952 139.518 272.743 152.684 269.766C153.499 269.582 153.627 270.879 152.818 271.062H152.818Z" fill="white"/>
<path d="M96.1204 301.345C93.4146 298.212 91.91 294.217 91.8754 290.076C91.8407 285.935 93.2783 281.916 95.9313 278.737C96.4703 278.096 97.4915 278.904 96.9518 279.546C94.4758 282.501 93.1371 286.245 93.1773 290.102C93.2174 293.958 94.6337 297.673 97.1706 300.576C97.7212 301.208 96.6678 301.973 96.1204 301.345Z" fill="white"/>
<path d="M80.0804 333.29C88.5123 333.982 96.8947 331.467 103.556 326.249C104.216 325.731 104.984 326.783 104.325 327.3C97.3827 332.717 88.6542 335.316 79.8814 334.578C79.0453 334.507 79.2488 333.22 80.0804 333.29H80.0804Z" fill="white"/>
<path d="M127.224 279.659C128.018 281.089 129.155 282.3 130.533 283.183C131.911 284.065 133.486 284.591 135.117 284.714C135.954 284.774 135.749 286.061 134.918 286.001C133.116 285.857 131.378 285.274 129.853 284.302C128.329 283.331 127.065 282.001 126.173 280.428C126.077 280.287 126.038 280.114 126.064 279.945C126.09 279.776 126.18 279.623 126.314 279.518C126.454 279.417 126.628 279.375 126.798 279.401C126.968 279.427 127.121 279.52 127.224 279.659Z" fill="white"/>
<path d="M435.385 25.8046C434.666 23.6812 425.655 16.4633 431.177 15.2502L435.705 21.2925L456.525 0.45871L458.619 2.55411L435.385 25.8046Z" fill="#52B452"/>
<path d="M435.385 96.6483C434.666 94.5249 425.655 87.3071 431.177 86.0939L435.705 92.1362L456.525 71.3024L458.619 73.3978L435.385 96.6483Z" fill="#52B452"/>
<path d="M435.385 168.504C434.666 166.381 425.655 159.163 431.177 157.95L435.705 163.992L456.525 143.158L458.619 145.254L435.385 168.504Z" fill="#52B452"/>
<path d="M416.214 110.41C419.762 110.41 422.638 107.532 422.638 103.981C422.638 100.431 419.762 97.5525 416.214 97.5525C412.666 97.5525 409.789 100.431 409.789 103.981C409.789 107.532 412.666 110.41 416.214 110.41Z" fill="#3F3D56"/>
<path d="M416.214 40.3344C419.762 40.3344 422.638 37.456 422.638 33.9054C422.638 30.3548 419.762 27.4764 416.214 27.4764C412.666 27.4764 409.789 30.3548 409.789 33.9054C409.789 37.456 412.666 40.3344 416.214 40.3344Z" fill="#3F3D56"/>
<path d="M581 19.1187H477.567V20.4045H581V19.1187Z" fill="#3F3D56"/>
<path d="M419.426 185.112C422.974 185.112 425.85 182.233 425.85 178.683C425.85 175.132 422.974 172.254 419.426 172.254C415.878 172.254 413.002 175.132 413.002 178.683C413.002 182.233 415.878 185.112 419.426 185.112Z" fill="#3F3D56"/>
<path d="M581 89.9623H477.567V91.2481H581V89.9623Z" fill="#3F3D56"/>
<path d="M581 161.818H477.567V163.104H581V161.818Z" fill="#3F3D56"/>
<path d="M451.611 178.083H419.489V145.295H441.332V146.581H420.774V176.797H450.326V162.011H451.611V178.083Z" fill="#3F3D56"/>
<path d="M451.611 106.078H419.489V73.2906H441.332V74.5764H420.774V104.793H450.326V90.006H451.611V106.078Z" fill="#3F3D56"/>
<path d="M451.611 32.7879H419.489V0H441.332V1.2858H420.774V31.5021H450.326V16.7154H451.611V32.7879Z" fill="#3F3D56"/>
<path d="M241.883 116.861C241.883 116.861 233.298 153.134 243.79 153.134C254.283 153.134 279.084 112.088 279.084 112.088L270.499 101.588L255.09 122.997L254.283 112.088L241.883 116.861Z" fill="#A0616A"/>
<path d="M276.796 113.665C281.409 113.665 285.148 109.923 285.148 105.307C285.148 100.692 281.409 96.9496 276.796 96.9496C272.184 96.9496 268.444 100.692 268.444 105.307C268.444 109.923 272.184 113.665 276.796 113.665Z" fill="#A0616A"/>
<path d="M234.604 363.912L245.72 363.911L251.009 321L234.601 321.001L234.604 363.912Z" fill="#A0616A"/>
<path d="M234.212 375.517L268.398 375.516V375.084C268.398 371.552 266.996 368.165 264.501 365.668C262.005 363.171 258.621 361.768 255.092 361.768H255.091L248.847 357.027L237.196 361.769L234.211 361.769L234.212 375.517Z" fill="#2F2E41"/>
<path d="M115.022 350.033L124.969 355L148.849 318.968L134.168 311.637L115.022 350.033Z" fill="#A0616A"/>
<path d="M109.492 360.241L140.081 375.517L140.274 375.13C141.85 371.97 142.107 368.314 140.988 364.964C139.87 361.615 137.468 358.847 134.31 357.27L134.309 357.27L130.838 350.237L118.297 349.273L115.627 347.94L109.492 360.241Z" fill="#2F2E41"/>
<path d="M366.096 375.559H0V377H366.096V375.559Z" fill="#CCCCCC"/>
<path d="M162.729 182.666C162.729 182.666 158.287 236.122 157.333 247.577C156.679 254.757 155.075 261.819 152.564 268.577C152.564 268.577 150.656 272.395 150.656 276.213L129.034 315.536C129.034 315.536 122.427 320.395 123.381 324.214C124.335 328.032 119.398 330.322 119.398 330.322L142.167 334.714C142.167 334.714 141.213 331.85 144.075 330.896C146.936 329.941 149.214 321.662 149.214 321.662L181.18 269.531L204.073 221.804C204.073 221.804 217.427 264.759 220.289 269.531C220.289 269.531 230.781 322.987 232.689 327.759C234.597 332.532 235.551 332.532 234.597 334.441C233.643 336.35 233.643 338.26 234.597 339.214C235.551 340.169 253.675 339.214 253.675 339.214L248.905 271.441L240.32 190.303L196.442 176.939L162.729 182.666Z" fill="#2F2E41"/>
<path d="M205.689 55.0526C216.752 55.0526 225.72 46.0779 225.72 35.0069C225.72 23.936 216.752 14.9612 205.689 14.9612C194.626 14.9612 185.657 23.936 185.657 35.0069C185.657 46.0779 194.626 55.0526 205.689 55.0526Z" fill="#A0616A"/>
<path d="M242.228 84.3472L218.382 69.8893C218.382 69.8893 217.721 60.9114 210.926 60.4889C207.515 60.2768 202.397 59.9525 194.715 59.4569C193.091 59.3522 191.996 68.2404 190.135 68.1198L164.964 74.8016L168.779 139.712C168.779 139.712 163.056 165.485 164.964 170.257C166.872 175.03 160.195 176.939 162.102 177.894C164.01 178.848 162.102 185.53 162.102 185.53C162.102 185.53 199.303 204.621 240.32 190.303L236.505 177.894C237.024 176.272 237.121 174.544 236.788 172.874C236.454 171.203 235.7 169.646 234.597 168.348C234.597 168.348 238.412 162.621 233.643 157.848C233.643 157.848 235.551 149.257 230.781 145.439L229.828 132.075L232.689 125.393L242.228 84.3472Z" fill="#E6E6E6"/>
<path d="M188.307 46.4585L187.747 45.157C187.675 44.9887 180.59 28.23 186.87 17.8927C189.776 13.1071 195.062 10.4052 202.578 9.86277C214.34 9.01174 222.389 11.8037 226.51 18.1552C227.201 19.2316 227.589 20.4745 227.634 21.7531C227.679 23.0317 227.379 24.2987 226.765 25.4211C226.152 26.5435 225.247 27.4796 224.147 28.1312C223.047 28.7827 221.791 29.1256 220.513 29.1237H220.355L218.194 26.3157L218.068 26.5888C217.286 28.2827 215.489 29.21 213.384 29.0069C213.026 28.9812 212.709 29.2904 212.454 29.9521C212.369 30.2416 212.207 30.5026 211.985 30.7078C211.764 30.913 211.492 31.0548 211.197 31.1183C209.642 31.4213 207.425 29.4612 206.433 28.4843C206.395 28.7091 206.309 28.9231 206.181 29.1118C206.053 29.3005 205.886 29.4594 205.691 29.578C204.645 30.1816 203.018 29.3931 202.551 29.1419C198.83 29.933 196.422 29.7214 195.39 28.5138C194.691 33.4664 193.189 42.381 191.389 42.8751C191.201 42.9184 191.004 42.9 190.827 42.8226C190.65 42.7453 190.503 42.613 190.407 42.4454C189.973 41.8822 189.586 41.6016 189.344 41.6804C188.758 41.8668 188.412 43.7968 188.363 45.0424L188.307 46.4585Z" fill="#2F2E41"/>
<path d="M231.735 85.3018L241.251 83.7548C248.105 90.3453 252.774 98.8814 254.628 108.211C257.49 123.484 258.444 126.348 258.444 126.348L235.551 132.075L223.15 108.211L231.735 85.3018Z" fill="#E6E6E6"/>
<path d="M189.512 105.167L183.632 179.765L333.697 191.612L339.577 117.013L189.512 105.167Z" fill="white"/>
<path d="M205.545 110.947C201.872 108.322 197.21 108.133 195.429 108.17C195.972 109.868 197.661 114.221 201.333 116.847C205.014 119.478 209.671 119.662 211.45 119.625C210.906 117.928 209.218 113.573 205.545 110.947Z" fill="#52B452"/>
<path d="M220.032 158.415L195.936 156.513C195.224 156.457 194.508 156.541 193.829 156.762C193.149 156.983 192.52 157.335 191.977 157.799C191.434 158.264 190.987 158.83 190.663 159.467C190.339 160.104 190.143 160.798 190.087 161.511C190.031 162.223 190.115 162.94 190.336 163.619C190.556 164.299 190.909 164.929 191.372 165.472C191.836 166.016 192.402 166.463 193.039 166.787C193.675 167.112 194.369 167.308 195.081 167.364L219.177 169.266C220.615 169.38 222.039 168.917 223.136 167.98C224.233 167.042 224.913 165.708 225.026 164.269C225.14 162.83 224.677 161.405 223.741 160.307C222.804 159.209 221.47 158.529 220.032 158.415Z" fill="#52B452"/>
<path d="M333.661 109.762L198.562 99.0965C196.991 98.9726 195.41 99.1597 193.911 99.6471C192.412 100.135 191.024 100.913 189.825 101.937C188.626 102.961 187.641 104.212 186.925 105.617C186.21 107.023 185.778 108.556 185.654 110.128L180.458 175.994C180.209 179.17 181.23 182.316 183.297 184.74C185.365 187.163 188.31 188.666 191.484 188.917L326.583 199.583C328.154 199.706 329.735 199.519 331.234 199.032C332.733 198.545 334.121 197.766 335.32 196.742C336.519 195.718 337.504 194.467 338.22 193.062C338.935 191.656 339.367 190.123 339.491 188.551L344.428 125.948L344.528 124.669L344.685 122.679C344.809 121.107 344.622 119.525 344.135 118.025C343.648 116.525 342.87 115.135 341.846 113.936C340.823 112.736 339.573 111.75 338.169 111.034C336.764 110.318 335.233 109.886 333.661 109.762ZM329.672 167.069L328.816 177.92C328.659 179.837 327.751 181.613 326.289 182.861C324.828 184.11 322.931 184.728 321.016 184.581L302.941 183.156C301.026 182.999 299.251 182.09 298.004 180.628C296.756 179.165 296.138 177.267 296.285 175.35L297.141 164.499C297.298 162.583 298.207 160.806 299.668 159.558C301.13 158.31 303.026 157.692 304.942 157.838L323.009 159.265C324.924 159.422 326.7 160.331 327.948 161.793C329.196 163.255 329.816 165.151 329.672 167.069ZM188.891 161.411C189.031 159.655 189.862 158.026 191.2 156.882C192.539 155.738 194.276 155.173 196.031 155.309L220.127 157.212C220.997 157.28 221.846 157.518 222.624 157.913C223.402 158.309 224.095 158.854 224.663 159.518C225.231 160.182 225.662 160.951 225.933 161.781C226.203 162.612 226.307 163.488 226.239 164.359C226.171 165.23 225.933 166.079 225.537 166.857C225.141 167.636 224.595 168.329 223.932 168.896C223.268 169.464 222.499 169.895 221.669 170.165C220.839 170.435 219.963 170.539 219.093 170.47L219.081 170.473L194.985 168.57C194.115 168.501 193.267 168.261 192.49 167.864C191.712 167.467 191.021 166.92 190.455 166.255C189.888 165.59 189.459 164.82 189.191 163.989C188.922 163.157 188.821 162.281 188.891 161.411ZM194.049 107.74L193.885 107.066L194.578 107.002C194.849 106.973 201.258 106.397 206.248 109.964C211.237 113.53 212.767 119.788 212.834 120.05L212.992 120.726L212.301 120.795C211.319 120.868 210.333 120.862 209.352 120.776C206.233 120.593 203.22 119.575 200.629 117.828C195.64 114.261 194.11 108.004 194.049 107.74Z" fill="#52B452"/>
<path d="M309.402 174.265L301.571 173.647C301.012 173.604 300.46 173.785 300.034 174.149C299.608 174.514 299.344 175.032 299.3 175.591C299.256 176.15 299.435 176.704 299.799 177.13C300.162 177.557 300.68 177.822 301.238 177.867L309.07 178.485C309.628 178.528 310.181 178.348 310.607 177.983C311.033 177.619 311.297 177.1 311.341 176.541C311.385 175.983 311.205 175.429 310.842 175.002C310.479 174.575 309.961 174.311 309.402 174.265Z" fill="#52B452"/>
<path d="M323.86 175.407L316.029 174.789C315.47 174.746 314.918 174.926 314.492 175.291C314.067 175.655 313.803 176.174 313.759 176.732C313.715 177.291 313.894 177.844 314.257 178.271C314.621 178.698 315.138 178.963 315.696 179.008L323.527 179.627C324.086 179.669 324.638 179.488 325.064 179.124C325.489 178.76 325.753 178.241 325.797 177.683C325.841 177.124 325.662 176.571 325.299 176.144C324.935 175.717 324.418 175.452 323.86 175.407Z" fill="#52B452"/>
<path d="M309.83 168.84L301.999 168.222C301.44 168.179 300.888 168.36 300.462 168.724C300.037 169.089 299.773 169.607 299.729 170.166C299.685 170.724 299.864 171.278 300.227 171.704C300.591 172.131 301.108 172.396 301.666 172.442L309.497 173.06C310.056 173.103 310.609 172.922 311.035 172.558C311.46 172.194 311.724 171.675 311.768 171.116C311.812 170.557 311.633 170.003 311.27 169.577C310.906 169.15 310.388 168.885 309.83 168.84Z" fill="#52B452"/>
<path d="M324.288 169.981L316.456 169.363C315.898 169.32 315.345 169.5 314.919 169.865C314.493 170.229 314.23 170.748 314.185 171.307C314.141 171.866 314.321 172.419 314.684 172.846C315.048 173.273 315.565 173.538 316.124 173.583L323.955 174.201C324.514 174.244 325.066 174.064 325.492 173.699C325.918 173.335 326.182 172.816 326.226 172.257C326.27 171.698 326.091 171.145 325.727 170.718C325.364 170.291 324.846 170.026 324.288 169.981Z" fill="#52B452"/>
<path d="M310.258 163.414L302.426 162.796C301.868 162.753 301.315 162.934 300.889 163.298C300.463 163.662 300.199 164.181 300.155 164.74C300.111 165.299 300.291 165.853 300.654 166.279C301.018 166.706 301.535 166.971 302.094 167.016L309.925 167.634C310.483 167.677 311.036 167.496 311.461 167.132C311.887 166.767 312.15 166.249 312.195 165.69C312.239 165.132 312.059 164.578 311.696 164.152C311.333 163.725 310.816 163.46 310.258 163.414Z" fill="#52B452"/>
<path d="M324.715 164.556L316.884 163.938C316.326 163.895 315.773 164.075 315.348 164.44C314.922 164.804 314.659 165.323 314.614 165.881C314.57 166.44 314.75 166.993 315.113 167.42C315.476 167.847 315.993 168.112 316.551 168.157L324.383 168.776C324.941 168.818 325.494 168.638 325.919 168.273C326.345 167.909 326.608 167.39 326.652 166.832C326.696 166.273 326.517 165.72 326.154 165.293C325.791 164.866 325.274 164.601 324.715 164.556Z" fill="#52B452"/>
<path d="M183.646 130.911L183.545 132.193L342.134 144.66L342.235 143.377L183.646 130.911Z" fill="white"/>
<path d="M344.528 124.669L344.428 125.949L338.909 125.515L280.104 120.893L280.21 119.612L339.008 124.236L344.528 124.669Z" fill="#3F3D56"/>
<path d="M150.656 111.075C150.656 111.075 142.071 147.348 152.564 147.348C163.056 147.348 187.857 106.302 187.857 106.302L179.272 95.8019L163.863 117.21L163.056 106.302L150.656 111.075Z" fill="#A0616A"/>
<path d="M185.569 107.879C190.182 107.879 193.921 104.137 193.921 99.5212C193.921 94.9054 190.182 91.1635 185.569 91.1635C180.957 91.1635 177.218 94.9054 177.218 99.5212C177.218 104.137 180.957 107.879 185.569 107.879Z" fill="#A0616A"/>
<path d="M171.913 80.529L166.189 74.8017C166.189 74.8017 154.743 81.4836 153.789 88.1655C152.835 94.8474 148.066 115.848 148.066 115.848L165.712 117.279L171.436 108.688L171.913 80.529Z" fill="#E6E6E6"/>
</svg>
